PathFileType	4	(X/Y/Z)	/tmp/tmpjnq7zxqp/Me/MarkerData/jogging04_segment_0.trc
DataRate	CameraRate	NumFrames	NumMarkers	Units	OrigDataRate	OrigDataStartFrame	OrigNumFrames
100.091	100.091	9	39	m	100.091	412	1100
Frame#	Time	C7			CLAV			LANK			LASI			LBHD			LELB			LFHD			LFIN			LFRM			LHEE			LKNE			LPSI			LSHO			LTHI			LTIB			LTOE			LUPA			LWRA			LWRB			RANK			RASI			RBAK			RBHD			RELB			RFHD			RFIN			RFRM			RHEE			RKNE			RPSI			RSHO			RTHI			RTIB			RTOE			RUPA			RWRA			RWRB			STRN			T10		
		X1	Y1	Z1	X2	Y2	Z2	X3	Y3	Z3	X4	Y4	Z4	X5	Y5	Z5	X6	Y6	Z6	X7	Y7	Z7	X8	Y8	Z8	X9	Y9	Z9	X10	Y10	Z10	X11	Y11	Z11	X12	Y12	Z12	X13	Y13	Z13	X14	Y14	Z14	X15	Y15	Z15	X16	Y16	Z16	X17	Y17	Z17	X18	Y18	Z18	X19	Y19	Z19	X20	Y20	Z20	X21	Y21	Z21	X22	Y22	Z22	X23	Y23	Z23	X24	Y24	Z24	X25	Y25	Z25	X26	Y26	Z26	X27	Y27	Z27	X28	Y28	Z28	X29	Y29	Z29	X30	Y30	Z30	X31	Y31	Z31	X32	Y32	Z32	X33	Y33	Z33	X34	Y34	Z34	X35	Y35	Z35	X36	Y36	Z36	X37	Y37	Z37	X38	Y38	Z38	X39	Y39	Z39

413	4.11625	-0.17914	1.46656	-0.0098032	-0.345135	1.39483	0.0333086	-0.288193	0.131465	0.129249	-0.223687	1.00921	0.185143	-0.239143	1.60859	0.0882903	-0.0349574	1.22385	0.305038	-0.345608	1.68426	0.0675355	-0.27287	1.02571	0.246341	-0.097867	1.08593	0.265769	-0.218882	0.100166	0.0772052	-0.415853	0.516766	0.140226	-0.0973249	1.02114	0.0660901	-0.218839	1.46704	0.172127	-0.354093	0.694774	0.180848	-0.328051	0.278841	0.155423	-0.455072	0.0832211	0.0753458	-0.147885	1.35664	0.279827	-0.189566	1.07695	0.206159	-0.169334	1.02597	0.252429	0.122296	0.156091	-0.0506618	-0.220258	0.98122	-0.131811	-0.164299	1.33739	-0.137579	-0.235285	1.59661	-0.0596788	-0.371181	1.14374	-0.233128	-0.340262	1.66333	-0.0606829	-0.529668	1.27335	0.0301027	-0.419734	1.13364	-0.161858	0.207507	0.159111	0.0136352	-0.12429	0.488262	-0.0991978	-0.0930114	1.0148	0.00442375	-0.295141	1.46115	-0.154442	-0.209427	0.8087	-0.154663	-0.0292707	0.392738	-0.11322	0.0181756	0.0568459	0.0127111	-0.358689	1.23251	-0.224977	-0.439834	1.2262	-0.0266295	-0.499792	1.18403	-0.0231551	-0.373079	1.2343	0.052599	-0.122968	1.24408	-0.0125149
414	4.12625	-0.179845	1.47137	-0.0108252	-0.345244	1.40111	0.0349197	-0.313551	0.124347	0.128423	-0.23805	1.00904	0.178	-0.238609	1.61284	0.0897087	-0.0291388	1.23095	0.299859	-0.345354	1.6883	0.070241	-0.270158	1.03359	0.248882	-0.0938583	1.093	0.263208	-0.244381	0.0885034	0.0791661	-0.412008	0.51776	0.140854	-0.101551	1.02794	0.0657251	-0.217355	1.47222	0.171111	-0.350264	0.696119	0.181755	-0.342968	0.274124	0.155169	-0.481261	0.0908099	0.0658954	-0.143386	1.36296	0.277315	-0.188078	1.08428	0.206475	-0.16627	1.03334	0.252268	0.131753	0.163212	-0.0528124	-0.224427	0.985946	-0.131674	-0.168521	1.34447	-0.139446	-0.235825	1.60165	-0.0583531	-0.375114	1.15158	-0.232221	-0.341034	1.66806	-0.0581402	-0.529477	1.27339	0.0379013	-0.4224	1.13952	-0.160361	0.21644	0.171561	0.0113877	-0.116798	0.494987	-0.0985599	-0.0976766	1.02175	0.00444124	-0.298933	1.46813	-0.152149	-0.210584	0.81303	-0.154742	-0.0203465	0.401204	-0.113502	0.0351718	0.0576476	0.0120384	-0.363035	1.24082	-0.224182	-0.440715	1.2288	-0.0225035	-0.500249	1.18599	-0.0189069	-0.37432	1.24133	0.0539727	-0.125151	1.25056	-0.0161138
415	4.13624	-0.180565	1.47546	-0.0116587	-0.345336	1.40662	0.0364706	-0.338359	0.118868	0.127336	-0.24356	1.01211	0.176044	-0.238055	1.61623	0.0912118	-0.0240267	1.23664	0.294835	-0.345075	1.6915	0.0729453	-0.268452	1.04075	0.250795	-0.0908303	1.0988	0.260609	-0.269382	0.0785455	0.0812827	-0.40779	0.517768	0.141738	-0.10528	1.03336	0.0655999	-0.215962	1.4766	0.169963	-0.346114	0.696459	0.182782	-0.357587	0.270225	0.15486	-0.50458	0.099711	0.0552922	-0.138969	1.36841	0.274909	-0.186966	1.09059	0.20643	-0.164285	1.03967	0.251924	0.140553	0.170428	-0.0549628	-0.228619	0.990119	-0.131461	-0.172847	1.35051	-0.140684	-0.236255	1.60578	-0.0570114	-0.378755	1.15819	-0.231247	-0.341769	1.67188	-0.0555934	-0.529232	1.27139	0.0455004	-0.424787	1.14392	-0.158955	0.224481	0.184178	0.00905851	-0.110686	0.501058	-0.0978656	-0.102329	1.0279	0.00450791	-0.302461	1.47405	-0.149836	-0.211925	0.816892	-0.154968	-0.0127965	0.409052	-0.113781	0.0514372	0.0589073	0.0113152	-0.367129	1.2481	-0.2234	-0.441532	1.2298	-0.0185282	-0.500526	1.18617	-0.014914	-0.375674	1.24749	0.0550192	-0.127219	1.25613	-0.0192427
416	4.14623	-0.181329	1.4788	-0.0122699	-0.345513	1.41125	0.0380163	-0.362165	0.115029	0.125957	-0.246039	1.01556	0.175845	-0.237423	1.61873	0.0927816	-0.0195087	1.24077	0.290278	-0.344787	1.69384	0.0756178	-0.267887	1.04713	0.252116	-0.0888272	1.10316	0.258088	-0.293599	0.0701984	0.0833081	-0.403219	0.516959	0.142871	-0.108928	1.03796	0.0655329	-0.214516	1.48002	0.168658	-0.342171	0.695942	0.184061	-0.371089	0.26746	0.154358	-0.524637	0.109656	0.0441662	-0.134547	1.37281	0.272542	-0.186409	1.0959	0.206041	-0.16345	1.04488	0.251452	0.148933	0.177594	-0.0570227	-0.232813	0.993611	-0.131195	-0.176792	1.35562	-0.141522	-0.236771	1.60898	-0.0555627	-0.382167	1.16339	-0.230272	-0.34246	1.67479	-0.0530348	-0.528863	1.26739	0.0527796	-0.4269	1.14674	-0.157632	0.231626	0.196777	0.00678716	-0.106104	0.506221	-0.0971537	-0.106905	1.03317	0.00459715	-0.305817	1.47879	-0.147503	-0.213488	0.820149	-0.155163	-0.00674284	0.416057	-0.114096	0.0670944	0.060569	0.0106521	-0.370992	1.25414	-0.222593	-0.442284	1.22916	-0.0147188	-0.500622	1.18459	-0.011253	-0.377086	1.25277	0.0557304	-0.129253	1.26072	-0.0219876
417	4.15622	-0.182059	1.48131	-0.012698	-0.345726	1.41491	0.0395693	-0.384422	0.112587	0.124422	-0.248872	1.0177	0.175545	-0.236843	1.6203	0.0943633	-0.0157157	1.24299	0.286192	-0.344492	1.69537	0.078299	-0.268538	1.05268	0.252858	-0.0879258	1.106	0.255772	-0.31645	0.0632492	0.0846937	-0.39854	0.515452	0.143991	-0.112581	1.04183	0.0654276	-0.212892	1.48241	0.167247	-0.338703	0.694632	0.185586	-0.382547	0.26596	0.153793	-0.541145	0.120253	0.0337107	-0.130165	1.37594	0.269804	-0.186566	1.1	0.20537	-0.163841	1.04891	0.250983	0.157028	0.184761	-0.0589484	-0.236988	0.996274	-0.13089	-0.180061	1.35991	-0.142156	-0.237402	1.61124	-0.054071	-0.385322	1.16711	-0.22935	-0.343104	1.67686	-0.0504577	-0.528304	1.2615	0.0596351	-0.4287	1.14797	-0.156432	0.237987	0.209121	0.00473963	-0.103029	0.510162	-0.0966533	-0.11134	1.03769	0.00462903	-0.309003	1.48229	-0.145186	-0.215347	0.822634	-0.155127	-0.00214683	0.422018	-0.114435	0.0821397	0.0626869	0.010034	-0.374599	1.25877	-0.221764	-0.442988	1.22691	-0.0111646	-0.500503	1.18125	-0.00794911	-0.378512	1.2569	0.0563958	-0.131246	1.26434	-0.0244156
418	4.16621	-0.182809	1.48295	-0.0129741	-0.345957	1.41752	0.0411428	-0.40413	0.111241	0.12305	-0.252106	1.01845	0.175178	-0.236516	1.62098	0.0957772	-0.0126967	1.24316	0.28256	-0.344196	1.69611	0.0809819	-0.270368	1.05739	0.252966	-0.0881547	1.10729	0.253799	-0.337177	0.0575668	0.0852627	-0.394184	0.513385	0.144742	-0.116011	1.04469	0.0653477	-0.211037	1.48371	0.165809	-0.335795	0.692472	0.187448	-0.391705	0.265333	0.153329	-0.554258	0.130552	0.025257	-0.125893	1.37765	0.266877	-0.187661	1.10289	0.204958	-0.165469	1.05175	0.250573	0.16497	0.192019	-0.0607063	-0.241152	0.998053	-0.130383	-0.183065	1.36305	-0.142581	-0.238126	1.61256	-0.0525486	-0.388166	1.1694	-0.228544	-0.343728	1.67814	-0.047904	-0.527565	1.25378	0.0659646	-0.430183	1.14767	-0.155418	0.243878	0.221342	0.00292358	-0.101436	0.512737	-0.0964104	-0.11559	1.04155	0.0045189	-0.312149	1.4847	-0.143045	-0.217531	0.824244	-0.154809	0.00117633	0.426699	-0.114674	0.0966901	0.0652587	0.00909262	-0.377935	1.26185	-0.220956	-0.44358	1.22306	-0.00790926	-0.500246	1.17617	-0.00497181	-0.380056	1.25972	0.0572423	-0.133207	1.26697	-0.0265797
419	4.1762	-0.183589	1.48368	-0.0131652	-0.346242	1.41901	0.0427567	-0.419887	0.110583	0.121557	-0.255014	1.01805	0.175053	-0.236191	1.62073	0.0972175	-0.0103802	1.24135	0.279442	-0.343874	1.696	0.0836516	-0.273341	1.06119	0.252486	-0.0895142	1.10701	0.252245	-0.354182	0.0535596	0.0850569	-0.390694	0.51102	0.144893	-0.11909	1.04634	0.0653127	-0.208945	1.4839	0.164434	-0.333579	0.689447	0.189704	-0.398722	0.26498	0.15301	-0.564528	0.139446	0.019458	-0.122038	1.37779	0.263923	-0.189621	1.10455	0.204333	-0.168305	1.05333	0.250181	0.172749	0.199448	-0.0622389	-0.245229	0.998876	-0.129706	-0.185909	1.3649	-0.14279	-0.238945	1.61298	-0.0509792	-0.390624	1.17031	-0.227865	-0.344377	1.67863	-0.0453267	-0.526806	1.24424	0.0715905	-0.431306	1.14595	-0.154627	0.249539	0.233543	0.000958941	-0.101395	0.513821	-0.0963672	-0.11969	1.04456	0.00426509	-0.315055	1.4859	-0.141219	-0.220091	0.824887	-0.154249	0.00325232	0.430056	-0.114931	0.110382	0.0685507	0.00808402	-0.381023	1.26333	-0.22017	-0.443841	1.21715	-0.0050099	-0.499798	1.16941	-0.00242023	-0.381596	1.26134	0.058333	-0.135137	1.26854	-0.0285481
420	4.18619	-0.184409	1.48346	-0.0133515	-0.346586	1.41931	0.044469	-0.430875	0.110185	0.119696	-0.257264	1.01662	0.1752	-0.235821	1.61954	0.0987282	-0.00888928	1.23756	0.276809	-0.343515	1.69505	0.0863592	-0.277372	1.06406	0.25153	-0.0920183	1.10521	0.251082	-0.366476	0.0510116	0.0836079	-0.388573	0.508532	0.144566	-0.121909	1.04672	0.0652498	-0.206652	1.48285	0.163228	-0.332202	0.685541	0.192441	-0.40363	0.264342	0.152401	-0.572352	0.145852	0.0160174	-0.11874	1.37602	0.260997	-0.192381	1.10497	0.203389	-0.172284	1.05363	0.249784	0.180157	0.206955	-0.0634721	-0.249121	0.998689	-0.129008	-0.188537	1.36545	-0.142829	-0.239741	1.61248	-0.0494879	-0.392645	1.16989	-0.227304	-0.34506	1.67829	-0.0427047	-0.526106	1.23292	0.0764849	-0.43213	1.1429	-0.154092	0.254688	0.245435	-0.000868917	-0.102882	0.513295	-0.0964639	-0.123662	1.04641	0.0039183	-0.317614	1.48583	-0.139827	-0.223051	0.824466	-0.153466	0.00407117	0.43216	-0.115423	0.123	0.0722724	0.00699416	-0.38384	1.26318	-0.219427	-0.44401	1.2096	-0.00239195	-0.499062	1.16097	-0.000357868	-0.383044	1.26175	0.0596898	-0.137055	1.269	-0.0302807
421	4.19618	-0.18532	1.48229	-0.0135313	-0.346989	1.4183	0.0462402	-0.436981	0.109299	0.117407	-0.258775	1.01419	0.175482	-0.235492	1.61737	0.100341	-0.00832161	1.23184	0.274629	-0.343126	1.69322	0.0891315	-0.282289	1.06578	0.250227	-0.0956077	1.1019	0.250214	-0.373706	0.0490972	0.080452	-0.387944	0.505834	0.144196	-0.124409	1.04565	0.0651338	-0.20436	1.48042	0.162373	-0.331486	0.680774	0.195377	-0.406195	0.262917	0.151171	-0.577795	0.14906	0.0144201	-0.116276	1.37225	0.258156	-0.195851	1.10403	0.202305	-0.177439	1.05252	0.249568	0.18714	0.21435	-0.0644123	-0.252796	0.997493	-0.128497	-0.190882	1.36469	-0.142806	-0.240656	1.611	-0.0479337	-0.394189	1.16811	-0.226875	-0.345771	1.67705	-0.0400336	-0.525348	1.21984	0.0806422	-0.432547	1.13856	-0.153809	0.258812	0.25694	-0.0023944	-0.105724	0.511168	-0.0967494	-0.12751	1.04687	0.00351538	-0.319916	1.48447	-0.138961	-0.226392	0.822892	-0.152617	0.00377191	0.433099	-0.116204	0.134158	0.0756298	0.00573453	-0.386289	1.26142	-0.21878	-0.444092	1.20061	-0.000115098	-0.498002	1.1509	0.00120133	-0.384246	1.26054	0.0610529	-0.13888	1.26826	-0.0317562
